<svg width="298" height="623" viewBox="0 0 298 623" fill="none" xmlns="http://www.w3.org/2000/svg">
<path fill-rule="evenodd" clip-rule="evenodd" d="M254.335 0H43.665C19.8195 0 0.488831 19.3307 0.488831 43.1762V579.156C0.488831 603.002 19.8195 622.333 43.665 622.333H254.335C278.181 622.333 297.511 603.002 297.511 579.156V43.1762C297.511 19.3307 278.181 0 254.335 0ZM9.42183 43.1762C9.42183 24.2642 24.753 8.933 43.665 8.933H65.3155C67.8808 9.83572 69.7196 12.2803 69.7196 15.1542C69.7196 24.2579 77.0995 31.6377 86.2031 31.6377H211.052C220.156 31.6377 227.536 24.2579 227.536 15.1542C227.536 12.2803 229.375 9.83572 231.94 8.933H254.335C273.247 8.933 288.578 24.2642 288.578 43.1762V579.156C288.578 598.068 273.247 613.4 254.335 613.4H43.665C24.753 613.4 9.42183 598.068 9.42183 579.156V43.1762Z" fill="#E51D37" fill-opacity="0.2"/>
</svg>
