<svg width="280" height="606" viewBox="0 0 280 606" fill="none" xmlns="http://www.w3.org/2000/svg">
<mask id="mask0_191725_3619" style="mask-type:alpha" maskUnits="userSpaceOnUse" x="0" y="0" width="280" height="606">
<path fill-rule="evenodd" clip-rule="evenodd" d="M0.468402 33.3757C0.437512 33.972 0.421875 34.5723 0.421875 35.1763V571.156C0.421875 590.068 15.753 605.4 34.6651 605.4H245.335C264.247 605.4 279.578 590.068 279.578 571.156V35.1763C279.578 35.1024 279.578 35.0286 279.578 34.9548C279.458 16.1448 264.173 0.933105 245.335 0.933105H222.94C220.375 1.83582 218.536 4.28044 218.536 7.15433C218.536 16.258 211.156 23.6378 202.053 23.6378H77.2031C68.0996 23.6378 60.7196 16.258 60.7196 7.15433C60.7196 4.28044 58.8809 1.83582 56.3156 0.933105H34.6651C26.1322 0.933105 18.3283 4.05409 12.3326 9.2168C10.0228 11.2056 7.98141 13.4975 6.27006 16.0306C2.89226 21.0304 0.800231 26.9703 0.468402 33.3757Z" fill="black"/>
</mask>
<g mask="url(#mask0_191725_3619)">
<rect x="0.421875" y="0.933105" width="279.156" height="604.466" fill="url(#paint0_linear_191725_3619)"/>
</g>
<defs>
<linearGradient id="paint0_linear_191725_3619" x1="236.309" y1="82.5361" x2="-95.4631" y2="259.148" gradientUnits="userSpaceOnUse">
<stop stop-color="#EB3850"/>
<stop offset="1" stop-color="#CB162E"/>
</linearGradient>
</defs>
</svg>
