<svg width="33" height="40" viewBox="0 0 33 40" fill="none" xmlns="http://www.w3.org/2000/svg">
<path fill-rule="evenodd" clip-rule="evenodd" d="M30.3469 4.2386C30.3469 4.2463 30.3463 4.24404 30.3434 4.23235C30.3333 4.19238 30.2954 4.04216 30.1574 3.80279C29.9968 3.52412 29.7367 3.19071 29.3563 2.87811C28.6118 2.26631 27.366 1.70134 25.4059 1.84552C22.1207 2.08715 19.4451 3.16618 17.4385 4.63209C19.0386 6.20176 20.1228 8.02513 20.6041 9.84919C20.709 9.72627 20.8177 9.60708 20.9299 9.49201C22.0565 8.33682 23.6288 7.49811 25.339 7.49811H30.3469V4.2386ZM12.2004 38.7308C12.6359 39.0384 13.1691 39.1482 13.7079 39.1482H18.4957C19.1573 39.1482 19.8104 38.9826 20.2848 38.4886C20.7523 38.0016 20.887 37.3599 20.887 36.7624V13.3388C21.0137 12.4549 21.4945 11.5239 22.235 10.7647C23.1015 9.87607 24.2277 9.32094 25.339 9.32094H31.2583H32.1698V8.40953V4.2386C32.1698 3.81357 31.9864 3.32564 31.7366 2.8924C31.4692 2.42847 31.0676 1.92507 30.5136 1.4698C29.3893 0.545856 27.6754 -0.149175 25.2722 0.0275914C21.5144 0.303992 18.3737 1.60596 16.0265 3.41753C13.6921 1.6558 10.593 0.394483 6.8976 0.123213C4.49486 -0.0531658 2.78125 0.640298 1.65688 1.56244C1.10282 2.01685 0.7011 2.51937 0.433509 2.98262C0.18369 3.41511 0 3.90266 0 4.32776V8.4905V9.40192H0.911418H6.83088C7.94296 9.40192 9.06933 9.95626 9.93572 10.8429C10.6765 11.601 11.157 12.5303 11.2833 13.4119V36.737C11.2833 37.335 11.4178 37.9772 11.8849 38.4646C11.9829 38.5669 12.0886 38.6552 12.2004 38.7308ZM11.5356 9.89091C11.4399 9.78041 11.3411 9.67299 11.2395 9.56896C10.1127 8.41584 8.5405 7.57908 6.83088 7.57908H1.82284V4.32776C1.82284 4.33575 1.8234 4.33351 1.82643 4.32159C1.83661 4.28154 1.87455 4.13222 2.01194 3.89438C2.17246 3.61648 2.43246 3.28384 2.81282 2.97188C3.55732 2.36129 4.80345 1.79723 6.76415 1.94116C9.99365 2.17823 12.6337 3.22268 14.6285 4.6474C13.0505 6.23118 11.9906 8.06362 11.5356 9.89091ZM13.2367 37.2291C13.2352 37.2277 13.2343 37.2267 13.2338 37.2262L13.2337 37.2261C13.2224 37.2144 13.1394 37.119 13.1394 36.7624V13.8674C13.1394 13.6756 13.1281 13.4842 13.1062 13.2939V11.8853C13.1062 9.96311 14.1148 7.70717 16.0401 5.81636C18.0242 7.72101 19.0641 10.0124 19.0641 11.9594V13.2206C19.0421 13.4119 19.0306 13.6043 19.0306 13.797V36.737C19.0306 37.0949 18.9475 37.1913 18.9358 37.2035L18.9356 37.2036C18.9297 37.2099 18.8413 37.3028 18.4622 37.3028H13.6746C13.4131 37.3028 13.2899 37.2586 13.2367 37.2291Z" fill="white"/>
</svg>
